<?xml version="1.0" encoding="utf-8"?>
<!-- Generator: Adobe Illustrator 20.1.0, SVG Export Plug-In . SVG Version: 6.00 Build 0)  -->
<!DOCTYPE svg PUBLIC "-//W3C//DTD SVG 1.1//EN" "http://www.w3.org/Graphics/SVG/1.1/DTD/svg11.dtd">
<svg version="1.1" xmlns="http://www.w3.org/2000/svg" xmlns:xlink="http://www.w3.org/1999/xlink" x="0px" y="0px"
	 viewBox="-165 372.4 330.6 49.2" style="enable-background:new -165 372.4 330.6 49.2;" xml:space="preserve" width="330" height="50">
<style type="text/css">
	.st0{fill:#333333;}
	.st1{fill:#169EDA;}
	.st2{fill:#FFFFFF;}
</style>
<g id="Calque_1">
	<g>
		<path class="st0" d="M-88.7,400.2h-2.5v10h-3.6v-26.1c2.6-0.1,5.3-0.2,7.3-0.2c5.6,0,9.2,2.8,9.2,7.3
			C-78.3,397.1-82.9,400.2-88.7,400.2z M-88.1,387h-3.1v10.3h2.8c3.4,0,6.3-1.9,6.3-5.4C-82.1,389.1-84.2,387-88.1,387z"/>
		<path class="st0" d="M-55.8,410.3v-11.9H-70v11.9h-3.6v-26.1h3.6v11h14.1v-11h3.6v26.1H-55.8z"/>
		<path class="st0" d="M-38.5,400.2H-41v10h-3.6v-26.1c2.6-0.1,5.3-0.2,7.3-0.2c5.6,0,9.2,2.8,9.2,7.3
			C-28.1,397.1-32.7,400.2-38.5,400.2z M-37.9,387H-41v10.3h2.8c3.4,0,6.3-1.9,6.3-5.4C-31.9,389.1-34,387-37.9,387z"/>
		<path class="st0" d="M-10.5,410.7c-2.5,0-4.9-0.5-6.9-1.8l0.7-3.3c2,1.3,4.4,2,6.8,2c3.1,0,5.3-1.8,5.3-4.1c0-2.5-1.7-4-4.8-5.1
			c-5-1.8-7.1-3.9-7.1-7.5c0-4.3,4-7.2,8.8-7.2c2.3,0,4.6,0.7,6.2,1.4l-0.5,3.1c-1.5-0.8-4.1-1.5-6.2-1.5c-2.7,0-4.7,1.5-4.7,3.6
			c0,2.6,1.8,3.6,5,4.8c4.8,1.8,6.9,4.1,6.9,7.7C-1,407.3-5,410.7-10.5,410.7z"/>
		<path class="st0" d="M18.2,410.2c-0.5,0.2-1.3,0.3-2,0.3c-1.5,0-2.6-0.7-2.9-2.3h-0.2c-1.3,1.3-3.2,2.4-5.8,2.4
			c-3,0-5.3-2-5.3-4.9c0-3.5,3-6.7,11-7.1v-2.4c0-1.7-1-2.8-2.8-2.8c-1.9,0-4.4,0.9-6.5,2.3l-0.3-2.6c2.1-1.5,4.8-2.5,7.9-2.5
			c3.1,0,5.2,1.8,5.2,4.9c0,1.2-0.1,8.9-0.1,9.7c0,1.5,0.7,2.3,2.2,2.4L18.2,410.2z M12.9,401.2c-6.2,0.3-7.6,2.6-7.6,4.1
			c0,1.6,1.2,2.7,3.3,2.7c1.7,0,3.4-0.8,4.4-1.7V401.2z"/>
		<path class="st0" d="M34.9,393.2c0.5,0.5,1.5,2.2,1.5,3.8c0,4.6-3.5,7.3-7.8,7.3c-0.5,0-1.6-0.2-1.6-0.2c-0.8,0.7-1.6,1.6-1.6,2.1
			c0,0.8,1,1.3,3.5,1.3h3.8c3.2,0,5.6,2.1,5.6,4.7c0,4.5-4.3,7.6-10.5,7.6c-4.5,0-7.7-2.4-7.7-5.6c0-2.1,1.8-3.9,3.6-4.8
			c-1-0.4-1.9-1.3-1.9-2.5c0-0.6,0.8-1.6,3.3-3.4c-0.9-0.3-3.7-2-3.7-5.9c0-4.4,3.6-7.1,7.8-7.1c1.9,0,3.5,0.7,4.5,1.3l5.9-1.5v3.9
			C39.6,394.5,35.7,393.3,34.9,393.2z M31.7,410.5c-4.2,0-6.2-0.3-6.2-0.3c-1.2,0.8-2.1,2.1-2.1,3.4c0,2.3,2.1,3.7,5.3,3.7
			c3.8,0,6.2-2,6.2-4.3C34.9,411.7,34,410.5,31.7,410.5z M28.8,393.3c-2.3,0-4.2,1.7-4.2,4c0,2.6,1.7,4.5,4.3,4.5
			c2.3,0,4.1-1.7,4.1-4.1C33,395.1,31.3,393.3,28.8,393.3z"/>
		<path class="st0" d="M56.9,401H44.3c0,3.6,2,6.7,6,6.7c2.2,0,4.2-0.5,6.3-1.5l-0.2,2.9c-2,1-4.1,1.5-6.8,1.5
			c-5.4,0-8.6-4.2-8.6-9.7c0-6.2,3.9-10.3,8.8-10.3c4.7,0,7.3,3.4,7.3,7.7C57.1,399.2,57,400.4,56.9,401z M49.3,393.4
			c-2.7,0-4.4,2.6-4.8,5.1h9.4C53.9,395.6,52.1,393.4,49.3,393.4z"/>
		<path class="st0" d="M64.5,416.6c-2.2,0-4.3-0.6-5.8-1.6l0.5-3.2c1.6,1.1,3.6,1.8,5.8,1.8c3.3,0,5.8-2.3,5.8-5.5
			c0-3.4-2.6-6.1-10.6-6.4l1.9-10.6H74l-0.3,2.8h-9.2l-0.9,5c7,0.5,10.7,3.9,10.7,8.5C74.2,413,70,416.6,64.5,416.6z"/>
		<path class="st0" d="M86.8,410.7c-4.6,0-9.4-3.1-9.4-9.9c0-6.8,5.3-10.1,9.9-10.1c4.6,0,9.4,3.1,9.4,9.9
			C96.7,407.4,91.5,410.7,86.8,410.7z M86.9,393.6c-3,0-6.2,2.5-6.2,7.1c0,4.5,2.9,7.2,6.4,7.2c3,0,6.1-2.6,6.1-7.1
			C93.3,396.2,90.4,393.6,86.9,393.6z"/>
	</g>
	<g id="Calque_4">
		<rect x="-165" y="372.4" class="st1" width="49.2" height="49.2"/>
	</g>
</g>
<g id="Calque_3">
	<rect x="-154.9" y="407.3" class="st2" width="4.9" height="9.5"/>
	<rect x="-146.3" y="402.7" class="st2" width="4.9" height="14.1"/>
	<rect x="-137.9" y="398.4" class="st2" width="4.9" height="18.4"/>
	<rect x="-129.3" y="393.8" class="st2" width="4.9" height="23"/>
	<polygon class="st2" points="-158,401.9 -143.7,387.8 -139.7,391.5 -129.3,381.5 -131.6,379.2 -122.7,377.2 -124.4,386.4 
		-126.5,384.6 -139.4,397.3 -143.7,393.3 -154.9,404.8 	"/>
</g>
</svg>
